<?xml version="1.0" standalone="no"?>
<!DOCTYPE svg PUBLIC "-//W3C//DTD SVG 20010904//EN"
 "http://www.w3.org/TR/2001/REC-SVG-20010904/DTD/svg10.dtd">
<svg version="1.0" xmlns="http://www.w3.org/2000/svg"
 width="256.000000pt" height="256.000000pt" viewBox="0 0 256.000000 256.000000"
 preserveAspectRatio="xMidYMid meet">
<metadata>
Created by potrace 1.11, written by Peter Selinger 2001-2013
</metadata>
<g transform="translate(0.000000,256.000000) scale(0.100000,-0.100000)"
fill="#000000" stroke="none">
<path d="M1910 2503 c-49 -38 -106 -96 -176 -179 -72 -84 -334 -431 -334 -442
0 -4 -24 -7 -53 -8 -181 -3 -214 -8 -297 -36 -47 -17 -90 -34 -95 -39 -6 -4
-25 -11 -43 -14 -18 -3 -41 -9 -50 -14 -24 -13 -103 -48 -127 -57 -11 -4 -36
-9 -55 -11 -38 -4 -60 -12 -130 -48 -25 -12 -72 -25 -105 -29 -113 -11 -147
-26 -194 -85 -28 -36 -39 -68 -40 -129 -1 -12 -9 -26 -18 -29 -20 -8 -82 -73
-84 -88 -1 -5 0 -20 0 -31 1 -12 -8 -33 -21 -47 -24 -26 -32 -54 -31 -122 0
-44 5 -71 16 -81 4 -4 -3 -18 -15 -32 -18 -18 -23 -34 -21 -69 2 -60 24 -89
96 -126 41 -22 59 -38 64 -56 7 -30 61 -115 93 -150 13 -13 38 -30 56 -37 19
-8 34 -18 34 -22 0 -5 -14 -27 -31 -50 -17 -24 -50 -91 -73 -150 -37 -94 -46
-109 -76 -125 -22 -11 -51 -17 -77 -15 -24 2 -43 0 -43 -4 0 -16 43 -46 83
-58 46 -15 267 -22 267 -9 0 4 12 5 27 3 34 -6 45 -13 38 -24 -3 -5 -1 -12 5
-15 6 -4 9 -1 8 6 -2 9 7 13 24 13 15 -1 25 2 22 7 -2 4 -11 6 -19 2 -8 -3
-15 0 -15 7 0 6 4 9 8 6 4 -2 13 4 20 15 12 19 5 26 -14 12 -5 -5 2 2 16 14
14 13 29 23 34 23 18 0 106 83 136 128 17 26 38 72 47 103 13 48 21 59 50 73
19 9 38 14 43 11 5 -3 21 6 36 20 15 14 39 28 53 32 27 6 67 29 89 50 7 7 17
13 21 13 3 0 15 14 24 30 10 17 23 30 29 30 5 0 25 7 44 16 19 9 37 14 40 11
3 -2 24 0 47 5 23 5 51 11 62 14 32 6 94 101 80 123 -7 13 54 35 94 34 37 -1
67 -6 156 -24 28 -6 76 -13 109 -16 32 -3 76 -11 98 -19 37 -13 98 -10 98 5 0
12 149 -8 180 -24 37 -19 40 -19 40 3 0 10 7 19 15 19 8 0 15 -4 15 -9 0 -17
16 -7 31 20 13 23 21 27 54 26 38 -2 65 13 65 37 0 6 18 -8 40 -31 30 -32 41
-39 46 -27 5 13 9 13 34 1 15 -8 33 -21 40 -29 12 -14 40 -21 40 -10 0 3 -18
30 -40 60 -22 30 -42 67 -44 83 -3 31 -73 162 -96 182 -4 3 -26 43 -50 90 -23
47 -56 103 -72 125 -15 22 -53 76 -83 120 -68 99 -92 126 -147 165 -85 60
-115 77 -238 135 -69 32 -127 59 -128 61 -3 2 72 138 124 224 44 73 175 352
187 400 13 51 12 90 -2 90 -3 0 -22 -12 -41 -27z m-1403 -2382 c-1 -15 -4 -17
-14 -9 -15 12 -17 22 -3 13 6 -3 10 -1 10 4 0 6 2 11 4 11 3 0 4 -9 3 -19z"/>
<path d="M915 211 c-3 -5 -2 -12 3 -15 5 -3 9 1 9 9 0 17 -3 19 -12 6z"/>
<path d="M777 199 c7 -7 15 -10 18 -7 3 3 -2 9 -12 12 -14 6 -15 5 -6 -5z"/>
<path d="M617 183 c-10 -10 -25 -18 -35 -18 -9 0 -17 -5 -17 -12 0 -6 -3 -15
-7 -19 -14 -14 -8 -24 15 -24 18 0 19 -2 7 -10 -11 -8 -9 -9 10 -6 14 3 28 5
33 5 4 1 7 9 7 19 0 10 -3 13 -8 7 -4 -6 -13 -10 -19 -9 -7 1 -19 2 -25 3 -10
1 -10 3 0 10 8 4 25 7 38 5 21 -2 24 1 19 19 -5 17 -4 19 4 7 10 -13 11 -13
11 0 0 13 1 13 10 0 8 -12 10 -12 10 -1 0 8 3 12 6 8 3 -3 1 -14 -5 -24 -7
-12 -10 -14 -11 -4 0 23 -10 6 -16 -25 -3 -19 -1 -24 5 -15 5 7 11 9 13 5 3
-5 3 -3 2 4 -2 6 4 12 12 12 9 0 12 -5 8 -12 -4 -7 -3 -8 4 -4 6 4 21 2 33 -5
15 -8 19 -8 15 0 -4 6 -3 11 3 11 11 0 9 19 -3 38 -7 11 -4 11 13 1 11 -8 17
-16 13 -19 -11 -8 -13 -30 -2 -30 6 0 10 7 10 16 0 8 5 12 11 9 6 -4 8 -14 4
-22 -4 -13 -3 -14 9 -4 8 7 20 10 26 6 6 -4 9 -1 8 6 -2 6 3 14 11 17 9 3 11
0 6 -8 -6 -9 -4 -11 5 -5 10 6 10 11 -4 20 -15 12 -15 13 0 19 20 8 24 8 23
-1 -3 -20 2 -31 17 -37 10 -4 13 -2 8 6 -5 8 -2 9 10 5 15 -6 15 -5 -1 17 -10
13 -27 22 -38 21 -11 0 -29 6 -40 14 -14 11 -16 11 -7 1 20 -23 14 -30 -15
-15 -16 8 -33 11 -42 6 -19 -10 -44 -3 -36 9 6 10 -15 8 -32 -3 -6 -4 -15 -3
-18 3 -5 8 -11 8 -20 0 -8 -7 -15 -7 -19 -1 -3 5 0 12 6 14 7 3 8 6 3 6 -6 1
-19 -7 -28 -16z m7 -18 c-4 -8 -11 -15 -16 -15 -6 0 -5 6 2 15 7 8 14 15 16
15 2 0 1 -7 -2 -15z m109 -42 c-6 -15 -23 -18 -23 -3 0 6 5 10 12 10 6 0 8 3
5 6 -4 4 -13 1 -22 -6 -14 -12 -18 -9 -12 8 1 4 5 6 10 5 4 -2 7 4 7 13 0 9
-5 12 -12 8 -7 -5 -8 -3 -3 6 10 16 45 -27 38 -47z m87 22 c18 -22 -19 -27
-46 -6 -16 13 -20 21 -12 23 18 6 45 -2 58 -17z m70 -5 c0 -5 -2 -10 -4 -10
-3 0 -8 5 -11 10 -3 6 -1 10 4 10 6 0 11 -4 11 -10z"/>
<path d="M782 144 c10 -10 20 -16 22 -13 3 3 -5 11 -17 18 -21 13 -21 12 -5
-5z"/>
<path d="M945 180 c-3 -6 1 -7 9 -4 18 7 21 14 7 14 -6 0 -13 -4 -16 -10z"/>
<path d="M910 170 c8 -5 11 -10 7 -10 -9 0 18 -30 28 -30 3 0 -2 11 -11 25 -9
14 -21 25 -28 25 -6 0 -4 -5 4 -10z"/>
<path d="M1033 165 c0 -8 4 -12 9 -9 5 3 6 10 3 15 -9 13 -12 11 -12 -6z"/>
<path d="M1075 171 c-3 -5 -2 -12 3 -15 5 -3 9 1 9 9 0 17 -3 19 -12 6z"/>
<path d="M956 162 c-2 -4 -1 -14 4 -22 7 -11 9 -9 7 8 -1 24 -3 26 -11 14z"/>
<path d="M986 153 c-6 -14 -5 -15 5 -6 7 7 10 15 7 18 -3 3 -9 -2 -12 -12z"/>
<path d="M1330 140 c0 -5 5 -10 11 -10 5 0 7 5 4 10 -3 6 -8 10 -11 10 -2 0
-4 -4 -4 -10z"/>
<path d="M1095 130 c-4 -6 -15 -8 -25 -5 -10 3 -21 2 -23 -3 -9 -13 41 -8 55
6 6 6 9 12 6 12 -4 0 -10 -5 -13 -10z"/>
<path d="M1007 119 c7 -7 15 -10 18 -7 3 3 -2 9 -12 12 -14 6 -15 5 -6 -5z"/>
<path d="M935 110 c-3 -6 1 -7 9 -4 18 7 21 14 7 14 -6 0 -13 -4 -16 -10z"/>
<path d="M155 100 c3 -5 8 -10 11 -10 2 0 4 5 4 10 0 6 -5 10 -11 10 -5 0 -7
-4 -4 -10z"/>
<path d="M439 93 c-12 -16 -12 -17 2 -6 12 10 18 10 29 0 12 -10 12 -9 1 6 -7
9 -15 17 -16 17 -1 0 -9 -8 -16 -17z"/>
<path d="M856 102 c-3 -5 1 -9 9 -9 8 0 12 4 9 9 -3 4 -7 8 -9 8 -2 0 -6 -4
-9 -8z"/>
<path d="M975 100 c3 -5 8 -10 11 -10 2 0 4 5 4 10 0 6 -5 10 -11 10 -5 0 -7
-4 -4 -10z"/>
<path d="M276 78 c3 -5 10 -6 15 -3 13 9 11 12 -6 12 -8 0 -12 -4 -9 -9z"/>
</g>
</svg>
